<svg viewBox="0 0 820 430" xmlns="http://www.w3.org/2000/svg" font-family="Arial, sans-serif">
  <rect width="820" height="430" fill="#ffffff"/>
  <defs>
    <marker id="c312" markerWidth="10" markerHeight="10" refX="6" refY="3" orient="auto"><path d="M0,0 L6,3 L0,6 Z" fill="#94a3b8"/></marker>
  </defs>
  <rect x="250" y="20" width="320" height="55" rx="8" fill="#fef3c7" stroke="#f59e0b" stroke-width="2.4"/>
  <text x="410" y="42" fill="#b45309" font-size="12" font-weight="bold" text-anchor="middle">① 每天 09:00 自动触发</text>
  <text x="410" y="62" fill="#92400e" font-size="9.5" text-anchor="middle">daily-tech-digest 这个 Agent 到点开工</text>
  <line x1="410" y1="75" x2="410" y2="93" stroke="#94a3b8" stroke-width="1.8" marker-end="url(#c312)"/>
  <rect x="250" y="95" width="320" height="55" rx="8" fill="#dcfce7" stroke="#22c55e" stroke-width="2"/>
  <text x="410" y="117" fill="#15803d" font-size="12" font-weight="bold" text-anchor="middle">② Prompt 注入 Skill + MEMORY.md</text>
  <text x="410" y="137" fill="#166534" font-size="9.5" text-anchor="middle">记忆里那条"更关注 AI 和芯片"跟着进了上下文</text>
  <line x1="410" y1="150" x2="410" y2="168" stroke="#94a3b8" stroke-width="1.8" marker-end="url(#c312)"/>
  <rect x="250" y="170" width="320" height="55" rx="8" fill="#ede9fe" stroke="#a855f7" stroke-width="2"/>
  <text x="410" y="192" fill="#7c3aed" font-size="12" font-weight="bold" text-anchor="middle">③ 调新闻 MCP 工具拉当日科技新闻</text>
  <text x="410" y="212" fill="#6b21a8" font-size="9.5" text-anchor="middle">McpToolAdapter 走 JSON-RPC 转发 · 结果回填</text>
  <line x1="410" y1="225" x2="410" y2="243" stroke="#94a3b8" stroke-width="1.8" marker-end="url(#c312)"/>
  <rect x="250" y="245" width="320" height="55" rx="8" fill="#dbeafe" stroke="#3b82f6" stroke-width="2"/>
  <text x="410" y="267" fill="#1d4ed8" font-size="12" font-weight="bold" text-anchor="middle">④ LLM 自己组稿，AI/芯片条目排前面</text>
  <text x="410" y="287" fill="#1e40af" font-size="9.5" text-anchor="middle">偏好来自记忆，不是写死在 Skill 里的规则</text>
  <line x1="410" y1="300" x2="410" y2="318" stroke="#94a3b8" stroke-width="1.8" marker-end="url(#c312)"/>
  <rect x="250" y="320" width="320" height="55" rx="8" fill="#fce7f3" stroke="#db2777" stroke-width="2.4"/>
  <text x="410" y="342" fill="#be185d" font-size="12" font-weight="bold" text-anchor="middle">⑤ notify 把日报推送出去</text>
  <text x="410" y="362" fill="#db2777" font-size="9.5" text-anchor="middle">跟天气 Agent 共用同一套通知机制（19 节）</text>
  <text x="410" y="408" fill="#64748b" font-size="11.5" text-anchor="middle">验收硬指标：全程零 Java 代码、MCP 工具注册成功、日报内容体现记忆里的偏好</text>
</svg>
