<svg viewBox="0 0 820 300" xmlns="http://www.w3.org/2000/svg" font-family="Arial, sans-serif">
  <rect width="820" height="300" fill="#ffffff"/>
  <defs>
    <marker id="m25b" markerWidth="10" markerHeight="10" refX="6" refY="3" orient="auto"><path d="M0,0 L6,3 L0,6 Z" fill="#94a3b8"/></marker>
  </defs>
  <rect x="290" y="20" width="240" height="50" rx="8" fill="#fef3c7" stroke="#f59e0b" stroke-width="2.6"/>
  <text x="410" y="42" fill="#b45309" font-size="13" font-weight="bold" text-anchor="middle">«interface» Sandbox</text>
  <text x="410" y="60" fill="#92400e" font-size="10" text-anchor="middle">enforce(SandboxAction)</text>
  <line x1="410" y1="70" x2="410" y2="108" stroke="#94a3b8" stroke-width="1.6" stroke-dasharray="4,3" marker-end="url(#m25b)"/>
  <text x="430" y="92" fill="#64748b" font-size="10">implements</text>
  <rect x="270" y="110" width="280" height="60" rx="8" fill="#dbeafe" stroke="#3b82f6" stroke-width="2"/>
  <text x="410" y="135" fill="#1d4ed8" font-size="13" font-weight="bold" text-anchor="middle">WhitelistSandbox</text>
  <text x="410" y="153" fill="#1e40af" font-size="10" text-anchor="middle">核心阶段唯一实现</text>
  <rect x="560" y="20" width="220" height="50" rx="8" fill="#f1f5f9" stroke="#94a3b8" stroke-width="2"/>
  <text x="670" y="42" fill="#475569" font-size="12" font-weight="bold" text-anchor="middle">SandboxAction</text>
  <text x="670" y="59" fill="#64748b" font-size="10" text-anchor="middle">type + target</text>
  <rect x="560" y="90" width="220" height="50" rx="8" fill="#f1f5f9" stroke="#94a3b8" stroke-width="2"/>
  <text x="670" y="112" fill="#475569" font-size="12" font-weight="bold" text-anchor="middle">ActionType</text>
  <text x="670" y="129" fill="#64748b" font-size="9.5" text-anchor="middle">FILE_ACCESS / SHELL_EXEC / HTTP_REQUEST</text>
  <rect x="560" y="160" width="220" height="50" rx="8" fill="#fee2e2" stroke="#ef4444" stroke-width="2"/>
  <text x="670" y="182" fill="#b91c1c" font-size="12" font-weight="bold" text-anchor="middle">SandboxViolation</text>
  <text x="670" y="199" fill="#991b1b" font-size="10" text-anchor="middle">Exception</text>
  <line x1="550" y1="170" x2="560" y2="190" stroke="#94a3b8" stroke-width="1.6" marker-end="url(#m25b)"/>
  <rect x="100" y="220" width="160" height="50" rx="8" fill="#f8fafc" stroke="#cbd5e1" stroke-width="1.6"/>
  <text x="180" y="242" fill="#475569" font-size="11" font-weight="bold" text-anchor="middle">checkFilePath</text>
  <text x="180" y="258" fill="#94a3b8" font-size="9" text-anchor="middle">private</text>
  <rect x="290" y="220" width="160" height="50" rx="8" fill="#f8fafc" stroke="#cbd5e1" stroke-width="1.6"/>
  <text x="370" y="242" fill="#475569" font-size="11" font-weight="bold" text-anchor="middle">checkShellCommand</text>
  <text x="370" y="258" fill="#94a3b8" font-size="9" text-anchor="middle">private</text>
  <rect x="480" y="220" width="160" height="50" rx="8" fill="#f8fafc" stroke="#cbd5e1" stroke-width="1.6"/>
  <text x="560" y="242" fill="#475569" font-size="11" font-weight="bold" text-anchor="middle">checkHttpUrl</text>
  <text x="560" y="258" fill="#94a3b8" font-size="9" text-anchor="middle">private</text>
  <line x1="350" y1="170" x2="180" y2="218" stroke="#94a3b8" stroke-width="1.4" marker-end="url(#m25b)"/>
  <line x1="410" y1="170" x2="370" y2="218" stroke="#94a3b8" stroke-width="1.4" marker-end="url(#m25b)"/>
  <line x1="470" y1="170" x2="560" y2="218" stroke="#94a3b8" stroke-width="1.4" marker-end="url(#m25b)"/>
  <text x="410" y="288" fill="#64748b" font-size="11" text-anchor="middle">三个 check 方法都是 private，外部只看得到 enforce(SandboxAction) 这一个入口</text>
</svg>
