<svg viewBox="0 0 820 250" xmlns="http://www.w3.org/2000/svg" font-family="Arial, sans-serif">
  <rect width="820" height="250" fill="#ffffff"/>
  <defs>
    <marker id="am1" markerWidth="10" markerHeight="10" refX="6" refY="3" orient="auto"><path d="M0,0 L6,3 L0,6 Z" fill="#f59e0b"/></marker>
    <marker id="gr1" markerWidth="10" markerHeight="10" refX="6" refY="3" orient="auto"><path d="M0,0 L6,3 L0,6 Z" fill="#22c55e"/></marker>
  </defs>
  <rect x="40" y="90" width="200" height="66" rx="10" fill="#dbeafe" stroke="#3b82f6" stroke-width="2"/>
  <text x="140" y="120" fill="#1d4ed8" font-size="15" font-weight="bold" text-anchor="middle">LLM（想）</text>
  <text x="140" y="142" fill="#334155" font-size="12" text-anchor="middle">决定调哪个工具、传什么参数</text>
  <rect x="310" y="90" width="200" height="66" rx="10" fill="#fef3c7" stroke="#f59e0b" stroke-width="2.6"/>
  <text x="410" y="120" fill="#b45309" font-size="15" font-weight="bold" text-anchor="middle">OryxOS（执行）</text>
  <text x="410" y="142" fill="#334155" font-size="12" text-anchor="middle">找到工具、跑它、拿结果</text>
  <rect x="580" y="90" width="200" height="66" rx="10" fill="#dcfce7" stroke="#22c55e" stroke-width="2"/>
  <text x="680" y="116" fill="#15803d" font-size="15" font-weight="bold" text-anchor="middle">外部世界</text>
  <text x="680" y="138" fill="#334155" font-size="11" text-anchor="middle">文件 / Shell / HTTP / 外部系统</text>
  <line x1="240" y1="112" x2="306" y2="112" stroke="#f59e0b" stroke-width="2" marker-end="url(#am1)"/>
  <text x="273" y="102" fill="#64748b" font-size="11" text-anchor="middle">要调</text>
  <line x1="510" y1="112" x2="576" y2="112" stroke="#f59e0b" stroke-width="2" marker-end="url(#am1)"/>
  <text x="543" y="102" fill="#64748b" font-size="11" text-anchor="middle">操作</text>
  <path d="M680,156 L680,200 L140,200 L140,158" fill="none" stroke="#22c55e" stroke-width="2" marker-end="url(#gr1)"/>
  <text x="410" y="220" fill="#15803d" font-size="12" text-anchor="middle">结果回填给 LLM，进下一轮思考</text>
</svg>
