<svg viewBox="0 0 820 320" xmlns="http://www.w3.org/2000/svg" font-family="Arial, sans-serif">
  <rect width="820" height="320" fill="#ffffff"/>
  <defs>
    <marker id="g1" markerWidth="10" markerHeight="10" refX="6" refY="3" orient="auto"><path d="M0,0 L6,3 L0,6 Z" fill="#94a3b8"/></marker>
  </defs>
  <rect x="40" y="24" width="220" height="46" rx="10" fill="#f1f5f9" stroke="#94a3b8" stroke-width="2"/>
  <text x="150" y="52" fill="#475569" font-size="14" font-weight="bold" text-anchor="middle">CLI · 人推</text>
  <rect x="300" y="24" width="220" height="46" rx="10" fill="#f1f5f9" stroke="#94a3b8" stroke-width="2"/>
  <text x="410" y="52" fill="#475569" font-size="14" font-weight="bold" text-anchor="middle">Web Service · 人推</text>
  <rect x="560" y="24" width="220" height="46" rx="10" fill="#fef3c7" stroke="#f59e0b" stroke-width="2.6"/>
  <text x="670" y="52" fill="#b45309" font-size="13" font-weight="bold" text-anchor="middle">AgentScheduler · 钟推（本节）</text>
  <line x1="150" y1="70" x2="150" y2="96" stroke="#94a3b8" stroke-width="2"/>
  <line x1="410" y1="70" x2="410" y2="96" stroke="#94a3b8" stroke-width="2"/>
  <line x1="670" y1="70" x2="670" y2="96" stroke="#94a3b8" stroke-width="2"/>
  <line x1="150" y1="96" x2="670" y2="96" stroke="#94a3b8" stroke-width="2"/>
  <line x1="410" y1="96" x2="410" y2="118" stroke="#94a3b8" stroke-width="2" marker-end="url(#g1)"/>
  <rect x="270" y="120" width="280" height="52" rx="10" fill="#e0e7ff" stroke="#6366f1" stroke-width="2"/>
  <text x="410" y="145" fill="#4338ca" font-size="15" font-weight="bold" text-anchor="middle">AgentService</text>
  <text x="410" y="163" fill="#6366f1" font-size="12" text-anchor="middle">统一入口，不管消息从哪来</text>
  <line x1="410" y1="172" x2="410" y2="198" stroke="#94a3b8" stroke-width="2" marker-end="url(#g1)"/>
  <rect x="310" y="200" width="200" height="50" rx="10" fill="#dcfce7" stroke="#22c55e" stroke-width="2"/>
  <text x="410" y="225" fill="#15803d" font-size="15" font-weight="bold" text-anchor="middle">ReActLoop</text>
  <text x="410" y="243" fill="#15803d" font-size="11" text-anchor="middle">不感知消息从哪个入口来</text>
  <text x="410" y="290" fill="#64748b" font-size="12" text-anchor="middle">定时任务不是新能力，是第三种触发源——到点自动生成一条消息</text>
</svg>
