<svg viewBox="0 0 820 310" xmlns="http://www.w3.org/2000/svg" font-family="Arial, sans-serif">
  <rect width="820" height="310" fill="#ffffff"/>
  <defs>
    <marker id="tmg1" markerWidth="10" markerHeight="10" refX="6" refY="3" orient="auto"><path d="M0,0 L6,3 L0,6 Z" fill="#94a3b8"/></marker>
  </defs>
  <rect x="60" y="20" width="320" height="50" rx="8" fill="#e0e7ff" stroke="#6366f1" stroke-width="2"/>
  <text x="220" y="50" fill="#4338ca" font-size="14" font-weight="bold" text-anchor="middle">ReActLoop / PromptBuilder（读）</text>
  <rect x="440" y="20" width="320" height="50" rx="8" fill="#fef3c7" stroke="#f59e0b" stroke-width="2.6"/>
  <text x="600" y="50" fill="#b45309" font-size="13" font-weight="bold" text-anchor="middle">MemoryTools（写：save_memory / recall_memory）</text>
  <line x1="220" y1="70" x2="220" y2="90" stroke="#94a3b8" stroke-width="1.8"/>
  <line x1="600" y1="70" x2="600" y2="90" stroke="#94a3b8" stroke-width="1.8"/>
  <line x1="220" y1="90" x2="600" y2="90" stroke="#94a3b8" stroke-width="1.8"/>
  <line x1="410" y1="90" x2="410" y2="110" stroke="#94a3b8" stroke-width="1.8" marker-end="url(#tmg1)"/>
  <rect x="210" y="112" width="400" height="56" rx="10" fill="#dcfce7" stroke="#22c55e" stroke-width="2.6"/>
  <text x="410" y="138" fill="#15803d" font-size="16" font-weight="bold" text-anchor="middle">MemoryService（门面）</text>
  <text x="410" y="158" fill="#166534" font-size="12" text-anchor="middle">统一门面，读写都走这里</text>
  <line x1="410" y1="168" x2="410" y2="188" stroke="#22c55e" stroke-width="1.8"/>
  <line x1="160" y1="188" x2="660" y2="188" stroke="#22c55e" stroke-width="1.8"/>
  <line x1="160" y1="188" x2="160" y2="216" stroke="#22c55e" stroke-width="1.8" marker-end="url(#tmg1)"/>
  <line x1="660" y1="188" x2="660" y2="216" stroke="#22c55e" stroke-width="1.8" marker-end="url(#tmg1)"/>
  <rect x="40" y="218" width="280" height="56" rx="8" fill="#dbeafe" stroke="#3b82f6" stroke-width="2"/>
  <text x="180" y="242" fill="#1d4ed8" font-size="13" font-weight="bold" text-anchor="middle">SessionManager</text>
  <text x="180" y="262" fill="#1e40af" font-size="11" text-anchor="middle">会话记忆 · SQLite</text>
  <rect x="500" y="218" width="280" height="56" rx="8" fill="#f1f5f9" stroke="#94a3b8" stroke-width="2"/>
  <text x="640" y="242" fill="#475569" font-size="13" font-weight="bold" text-anchor="middle">LongTermMemory</text>
  <text x="640" y="262" fill="#64748b" font-size="11" text-anchor="middle">长期记忆 · MEMORY.md（核心+归档分区）</text>
  <text x="410" y="298" fill="#64748b" font-size="12" text-anchor="middle">上层只认 MemoryService 一个接口，不用分别去问 Session 和 MEMORY.md 两个地方</text>
</svg>
